<svg width="14" height="14" viewBox="0 0 14 14" fill="none" xmlns="http://www.w3.org/2000/svg">
<path d="M6.98624 3.42511C7.61001 3.42511 8.2026 3.61224 8.76399 3.92412C9.32538 4.23601 9.76202 4.67265 10.0739 5.23404C10.3858 5.79544 10.5729 6.38802 10.5729 7.01179C10.5729 7.66675 10.3858 8.25934 10.0739 8.82073C9.76202 9.38213 9.32538 9.81877 8.76399 10.1307C8.2026 10.4425 7.61001 10.5985 6.98624 10.5985C6.33128 10.5985 5.7387 10.4425 5.1773 10.1307C4.61591 9.81877 4.17927 9.38213 3.86738 8.82073C3.5555 8.25934 3.39955 7.66675 3.39955 7.01179C3.39955 6.38802 3.5555 5.79544 3.86738 5.23404C4.17927 4.67265 4.61591 4.23601 5.1773 3.92412C5.7387 3.61224 6.33128 3.42511 6.98624 3.42511ZM6.98624 9.35094C7.61001 9.35094 8.17141 9.13262 8.63924 8.66479C9.07588 8.22815 9.32538 7.66675 9.32538 7.01179C9.32538 6.38802 9.07588 5.82663 8.63924 5.3588C8.17141 4.92216 7.61001 4.67265 6.98624 4.67265C6.33128 4.67265 5.76989 4.92216 5.33325 5.3588C4.86542 5.82663 4.6471 6.38802 4.6471 7.01179C4.6471 7.66675 4.86542 8.22815 5.33325 8.66479C5.76989 9.13262 6.33128 9.35094 6.98624 9.35094ZM11.571 3.26916C11.571 3.05084 11.4774 2.86371 11.3215 2.67658C11.1343 2.52064 10.9472 2.42707 10.7289 2.42707C10.4794 2.42707 10.2922 2.52064 10.1363 2.67658C9.94916 2.86371 9.88678 3.05084 9.88678 3.26916C9.88678 3.51867 9.94916 3.7058 10.1363 3.86175C10.2922 4.04888 10.4794 4.11126 10.7289 4.11126C10.9472 4.11126 11.1343 4.04888 11.2903 3.86175C11.4462 3.7058 11.5398 3.51867 11.571 3.26916ZM13.9413 4.11126C13.9413 4.70384 13.9725 5.67068 13.9725 7.01179C13.9725 8.38409 13.9413 9.35094 13.9101 9.94352C13.8789 10.5361 13.7854 11.0351 13.6606 11.4718C13.4735 12.002 13.1616 12.4698 12.7873 12.8441C12.4131 13.2183 11.9452 13.499 11.4462 13.6861C11.0096 13.8421 10.4794 13.9357 9.88678 13.9668C9.2942 13.998 8.32735 13.998 6.98624 13.998C5.61394 13.998 4.6471 13.998 4.05451 13.9668C3.46193 13.9357 2.96291 13.8421 2.52627 13.655C1.99607 13.499 1.52824 13.2183 1.15398 12.8441C0.779714 12.4698 0.499017 12.002 0.311886 11.4718C0.155943 11.0351 0.0623772 10.5361 0.0311886 9.94352C0 9.35094 0 8.38409 0 7.01179C0 5.67068 0 4.70384 0.0311886 4.11126C0.0623772 3.51867 0.155943 2.98847 0.311886 2.55183C0.499017 2.05281 0.779714 1.58498 1.15398 1.21072C1.52824 0.836456 1.99607 0.52457 2.52627 0.337438C2.96291 0.212684 3.46193 0.119118 4.05451 0.0879297C4.6471 0.0567411 5.61394 0.0255526 6.98624 0.0255526C8.32735 0.0255526 9.2942 0.0567411 9.88678 0.0879297C10.4794 0.119118 11.0096 0.212684 11.4462 0.337438C11.9452 0.52457 12.4131 0.836456 12.7873 1.21072C13.1616 1.58498 13.4735 2.05281 13.6606 2.55183C13.7854 2.98847 13.8789 3.51867 13.9413 4.11126ZM12.4442 11.1287C12.569 10.7856 12.6314 10.2242 12.6938 9.4445C12.6938 9.00786 12.7249 8.3529 12.7249 7.51081V6.51278C12.7249 5.67068 12.6938 5.01572 12.6938 4.57908C12.6314 3.79937 12.569 3.23798 12.4442 2.8949C12.1947 2.27113 11.7269 1.8033 11.1031 1.55379C10.7601 1.42904 10.1987 1.36666 9.41895 1.30428C8.95112 1.30428 8.29616 1.2731 7.48526 1.2731H6.48722C5.64513 1.2731 4.99017 1.30428 4.55353 1.30428C3.77382 1.36666 3.21242 1.42904 2.86935 1.55379C2.21439 1.8033 1.77775 2.27113 1.52824 2.8949C1.40349 3.23798 1.30992 3.79937 1.27873 4.57908C1.24754 5.04691 1.24754 5.70187 1.24754 6.51278V7.51081C1.24754 8.3529 1.24754 9.00786 1.27873 9.4445C1.30992 10.2242 1.40349 10.7856 1.52824 11.1287C1.77775 11.7836 2.24558 12.2203 2.86935 12.4698C3.21242 12.5945 3.77382 12.6881 4.55353 12.7193C4.99017 12.7505 5.64513 12.7505 6.48722 12.7505H7.48526C8.32735 12.7505 8.98231 12.7505 9.41895 12.7193C10.1987 12.6881 10.7601 12.5945 11.1031 12.4698C11.7269 12.2203 12.1947 11.7525 12.4442 11.1287Z" fill="white"/>
</svg>
