<svg width="10" height="15" viewBox="0 0 10 15" fill="none" xmlns="http://www.w3.org/2000/svg">
<path d="M9.76375 3.73335C9.71208 3.53324 9.60716 3.32002 9.52954 3.13333C8.60069 0.826665 6.57118 0 4.93245 0C2.73872 0 0.322575 1.52004 0 4.6532V5.29332C0 5.32003 0.0089098 5.56 0.0215658 5.68004C0.202394 7.17323 1.34261 8.76015 2.19417 10.2533C3.11033 11.8531 4.06098 13.4269 5.00282 15C5.58357 13.9734 6.16224 12.9333 6.72977 11.9333C6.88444 11.6399 7.06398 11.3466 7.21883 11.0665C7.32203 10.88 7.51919 10.6935 7.60927 10.5199C8.52539 8.78669 10 7.04008 10 5.32V4.61337C10 4.4269 9.77634 3.77356 9.76375 3.73335ZM4.97261 6.94675C4.32777 6.94675 3.62193 6.61356 3.27354 5.6934C3.22163 5.54693 3.22582 5.25339 3.22582 5.2265V4.81317C3.22582 3.64013 4.1897 3.10669 5.02823 3.10669C6.06055 3.10669 6.85896 3.96014 6.85896 5.02688C6.85896 6.09358 6.00493 6.94675 4.97261 6.94675Z" fill="white"/>
</svg>
