<svg width="15" height="15" viewBox="0 0 15 15" fill="none" xmlns="http://www.w3.org/2000/svg">
<g clip-path="url(#clip0)">
<path d="M7.58288 3.19202C10.1103 3.21612 11.6937 3.06332 11.9076 5.78549H14.9897C14.9897 1.56842 11.2047 1 7.50264 1C3.80027 1 0.015625 1.56842 0.015625 5.78549H3.0738C3.31041 3.01144 5.07641 3.16821 7.58288 3.19202Z" fill="white"/>
<path d="M1.54368 7.14117C2.29436 7.14117 2.91901 7.18483 3.05788 6.46729C3.07656 6.36977 3.08735 6.25921 3.08735 6.13135H3.05176H0C0 7.19872 0.691168 7.14117 1.54368 7.14117Z" fill="white"/>
<path d="M11.9273 6.13135H11.8984C11.8984 6.26006 11.9098 6.37091 11.9311 6.4673C12.0776 7.12899 12.7013 7.08788 13.4494 7.08788C14.306 7.08788 15.0004 7.14259 15.0004 6.13135H11.9273Z" fill="white"/>
<path d="M10.4213 5.40443V4.98032C10.4213 4.79065 10.1964 4.77875 9.91862 4.77875H9.46494C9.18748 4.77875 8.96254 4.79065 8.96254 4.98032V5.34575V5.62925H5.75323V5.34575V4.98032C5.75323 4.79065 5.52829 4.77875 5.25083 4.77875H4.79686C4.5194 4.77875 4.29446 4.79065 4.29446 4.98032V5.40443V5.77468C3.56332 6.51292 1.17093 9.65552 1.08398 10.036L1.08515 12.5747C1.08515 12.8092 1.2815 13 1.52278 13H13.193C13.4343 13 13.6306 12.8092 13.6306 12.5747V10.0232C13.5445 9.65382 11.1527 6.51263 10.4213 5.7744V5.40443ZM5.5951 10.3776C5.36024 10.3776 5.16972 10.1927 5.16972 9.96425C5.16972 9.73575 5.36024 9.55091 5.5951 9.55091C5.82996 9.55091 6.02048 9.73575 6.02048 9.96425C6.02048 10.1927 5.82996 10.3776 5.5951 10.3776ZM5.5951 8.96009C5.36024 8.96009 5.16972 8.77525 5.16972 8.54675C5.16972 8.31825 5.36024 8.1334 5.5951 8.1334C5.82996 8.1334 6.02048 8.31825 6.02048 8.54675C6.02048 8.77525 5.82996 8.96009 5.5951 8.96009ZM5.5951 7.54287C5.36024 7.54287 5.16972 7.35803 5.16972 7.12953C5.16972 6.90131 5.36024 6.71619 5.5951 6.71619C5.82996 6.71619 6.02048 6.90131 6.02048 7.12953C6.02048 7.35803 5.82996 7.54287 5.5951 7.54287ZM7.34563 10.3776C7.11077 10.3776 6.92025 10.1927 6.92025 9.96425C6.92025 9.73575 7.11077 9.55091 7.34563 9.55091C7.58079 9.55091 7.77101 9.73575 7.77101 9.96425C7.77101 10.1927 7.58079 10.3776 7.34563 10.3776ZM7.34563 8.96009C7.11077 8.96009 6.92025 8.77525 6.92025 8.54675C6.92025 8.31825 7.11077 8.1334 7.34563 8.1334C7.58079 8.1334 7.77101 8.31825 7.77101 8.54675C7.77101 8.77525 7.58079 8.96009 7.34563 8.96009ZM7.34563 7.54287C7.11077 7.54287 6.92025 7.35803 6.92025 7.12953C6.92025 6.90131 7.11077 6.71619 7.34563 6.71619C7.58079 6.71619 7.77101 6.90131 7.77101 7.12953C7.77101 7.35803 7.58079 7.54287 7.34563 7.54287ZM9.09616 10.3776C8.86101 10.3776 8.67078 10.1927 8.67078 9.96425C8.67078 9.73575 8.86101 9.55091 9.09616 9.55091C9.33132 9.55091 9.52154 9.73575 9.52154 9.96425C9.52154 10.1927 9.33132 10.3776 9.09616 10.3776ZM9.09616 8.96009C8.86101 8.96009 8.67078 8.77525 8.67078 8.54675C8.67078 8.31825 8.86101 8.1334 9.09616 8.1334C9.33132 8.1334 9.52154 8.31825 9.52154 8.54675C9.52154 8.77525 9.33132 8.96009 9.09616 8.96009ZM9.09616 7.54287C8.86101 7.54287 8.67078 7.35803 8.67078 7.12953C8.67078 6.90131 8.86101 6.71619 9.09616 6.71619C9.33132 6.71619 9.52154 6.90131 9.52154 7.12953C9.52154 7.35803 9.33132 7.54287 9.09616 7.54287Z" fill="white"/>
</g>
<defs>
<clipPath id="clip0">
<rect width="15" height="15" fill="white"/>
</clipPath>
</defs>
</svg>
