<svg width="19" height="16" viewBox="0 0 19 16" fill="none" xmlns="http://www.w3.org/2000/svg">
<path d="M17.7806 0.0624597L0.403607 6.83119C-0.159238 7.05046 -0.12514 7.8578 0.454241 8.02878L4.86993 9.33216L6.51787 14.559C6.69001 15.105 7.38218 15.2705 7.78286 14.8615L10.0659 12.5314L14.5454 15.8181C15.0936 16.2203 15.8743 15.9215 16.0135 15.2562L18.9803 1.07795C19.1256 0.383459 18.442 -0.19516 17.7806 0.0624597ZM15.602 3.20896L7.53049 10.3435C7.45003 10.4147 7.39883 10.5131 7.38685 10.6198L7.07609 13.3811C7.06594 13.4712 6.93987 13.4831 6.91296 13.3966L5.6344 9.27847C5.57584 9.08993 5.65219 8.88566 5.82 8.78164L15.3516 2.87257C15.5708 2.73658 15.7953 3.0382 15.602 3.20896Z" fill="white"/>
</svg>
