<svg width="16" height="16" viewBox="0 0 16 16" fill="none" xmlns="http://www.w3.org/2000/svg">
<path d="M7.99954 8.55354C4.21232 8.55354 1.14258 11.422 1.14258 14.9608H2.05668C2.06298 11.8937 4.7175 9.41304 7.99954 9.40782C11.2812 9.41304 13.9356 11.8937 13.9417 14.9608H14.8569C14.8563 11.422 11.7864 8.55354 7.99954 8.55354Z" fill="#AE9A64"/>
<path d="M7.99992 8.25687C10.4404 8.25687 12.4181 6.40895 12.4188 4.12869C12.4181 1.84792 10.4405 0 7.99992 0C5.55931 0 3.58105 1.84792 3.58105 4.12886C3.58105 6.40895 5.55931 8.25687 7.99992 8.25687ZM7.99992 0.853944C9.93572 0.857138 11.5007 2.32011 11.5045 4.12869C11.5007 5.93676 9.93554 7.40007 7.99992 7.40326C6.06431 7.3999 4.49822 5.9366 4.49498 4.12869C4.49822 2.32011 6.06431 0.857138 7.99992 0.853944Z" fill="#AE9A64"/>
</svg>
