<svg width="19" height="20" viewBox="0 0 19 20" fill="none" xmlns="http://www.w3.org/2000/svg">
<path d="M18.575 4.80827L18.5693 4.78519C18.1109 2.89804 16.0445 0.873036 14.1467 0.451747L14.1253 0.447259C11.0558 -0.149086 7.94353 -0.149086 4.87467 0.447259L4.85263 0.451747C2.95553 0.873036 0.889051 2.89804 0.430044 4.78519L0.425007 4.80827C-0.141669 7.44373 -0.141669 10.1164 0.425007 12.7518L0.430044 12.7749C0.869469 14.5815 2.78206 16.5135 4.60896 17.0448V19.1514C4.60896 19.9138 5.52131 20.2883 6.04013 19.7381L8.13589 17.5195C8.59042 17.5454 9.04521 17.5599 9.5 17.5599C11.0451 17.5599 12.5909 17.4111 14.1253 17.1129L14.1467 17.1084C16.0445 16.6871 18.1109 14.6621 18.5693 12.775L18.575 12.7519C19.1417 10.1164 19.1417 7.44373 18.575 4.80827ZM16.9165 12.3697C16.6105 13.6008 15.0415 15.1315 13.7948 15.4142C12.1627 15.7303 10.5177 15.8654 8.87433 15.819C8.84165 15.8181 8.81023 15.831 8.78744 15.8549C8.55422 16.0987 7.25722 17.4546 7.25722 17.4546L5.62961 19.1558C5.5106 19.2821 5.30156 19.1962 5.30156 19.0218V15.5321C5.30156 15.4744 5.26114 15.4255 5.20554 15.4144C5.20523 15.4143 5.20491 15.4142 5.2046 15.4142C3.95791 15.1314 2.38948 13.6008 2.08285 12.3696C1.57284 9.98743 1.57284 7.57255 2.08285 5.19038C2.38948 3.95922 3.95791 2.4286 5.2046 2.14582C8.05498 1.59372 10.945 1.59372 13.7948 2.14582C15.0421 2.4286 16.6105 3.95922 16.9165 5.19038C17.4271 7.57262 17.4271 9.9875 16.9165 12.3697Z" fill="white"/>
<path d="M12.2117 13.9812C12.0201 13.9219 11.8374 13.8821 11.6678 13.8104C9.91007 13.0677 8.2924 12.1096 7.01102 10.6409C6.28234 9.80565 5.71201 8.86272 5.22989 7.86483C5.00127 7.3916 4.8086 6.89984 4.61222 6.41129C4.43315 5.96576 4.6969 5.50549 4.97464 5.1698C5.23525 4.85477 5.57059 4.61366 5.93377 4.43598C6.21723 4.29728 6.49686 4.37724 6.70388 4.62193C7.15143 5.15095 7.56252 5.70703 7.89541 6.32023C8.10011 6.69741 8.04394 7.15845 7.67296 7.41514C7.58279 7.47753 7.50063 7.55076 7.41663 7.62123C7.34297 7.68298 7.27364 7.74537 7.22314 7.82899C7.13084 7.98198 7.12643 8.16243 7.18587 8.32876C7.64337 9.60917 8.41449 10.6048 9.67993 11.1411C9.88243 11.2269 10.0858 11.3268 10.3191 11.2991C10.7098 11.2526 10.8363 10.8162 11.11 10.5881C11.3776 10.3653 11.7196 10.3624 12.0078 10.5481C12.2961 10.734 12.5756 10.9334 12.8534 11.135C13.1261 11.3329 13.3976 11.5265 13.6492 11.7521C13.891 11.969 13.9743 12.2536 13.8381 12.548C13.5888 13.0871 13.226 13.5357 12.7026 13.822C12.5549 13.9027 12.3784 13.9289 12.2117 13.9812C12.0201 13.9218 12.3784 13.9289 12.2117 13.9812Z" fill="white"/>
<path d="M9.50533 3.81884C11.8045 3.88444 13.6928 5.43834 14.0975 7.75318C14.1664 8.1476 14.191 8.55087 14.2216 8.9512C14.2345 9.11958 14.1409 9.27957 13.9625 9.28175C13.7782 9.28399 13.6953 9.12696 13.6833 8.95863C13.6596 8.62545 13.6432 8.29079 13.5981 7.96037C13.3601 6.21615 11.9944 4.77313 10.2897 4.46348C10.0332 4.41686 9.77059 4.40461 9.51074 4.37685C9.34647 4.35928 9.13132 4.34914 9.09493 4.14119C9.06439 3.96684 9.20889 3.82802 9.3719 3.8191C9.41623 3.8166 9.46081 3.81865 9.50533 3.81884C11.8045 3.88444 9.46081 3.81865 9.50533 3.81884Z" fill="white"/>
<path d="M12.9989 8.43167C12.9951 8.46091 12.9931 8.52965 12.9763 8.59441C12.9153 8.82949 12.5653 8.85892 12.4847 8.62167C12.4609 8.55126 12.4573 8.47117 12.4572 8.39538C12.4563 7.89945 12.3505 7.40403 12.1049 6.97255C11.8525 6.52907 11.4669 6.15626 11.0145 5.93068C10.741 5.79429 10.4452 5.70952 10.1454 5.65899C10.0144 5.63693 9.882 5.62353 9.75034 5.60487C9.59079 5.58229 9.5056 5.47874 9.51316 5.31862C9.52021 5.16857 9.62788 5.06065 9.78844 5.06989C10.3161 5.10041 10.8257 5.21654 11.2948 5.4695C12.2487 5.98396 12.7936 6.79602 12.9526 7.88034C12.9598 7.92946 12.9714 7.97813 12.975 8.02744C12.984 8.14921 12.9897 8.27111 12.9989 8.43167C12.9951 8.46091 12.9897 8.27111 12.9989 8.43167Z" fill="white"/>
<path d="M11.5682 8.37595C11.3759 8.37947 11.2729 8.27104 11.2531 8.09143C11.2393 7.9662 11.2284 7.8393 11.1991 7.71747C11.1413 7.47752 11.016 7.25514 10.8178 7.10811C10.7243 7.03866 10.6182 6.98807 10.5072 6.95543C10.3661 6.91394 10.2196 6.92536 10.0788 6.89022C9.92589 6.85206 9.84133 6.726 9.86538 6.57992C9.88723 6.447 10.0142 6.34325 10.1568 6.35376C11.0482 6.4193 11.6853 6.88861 11.7762 7.95729C11.7826 8.0327 11.7902 8.1124 11.7738 8.18454C11.7456 8.30804 11.6558 8.36992 11.5682 8.37595C11.3759 8.37947 11.6558 8.36992 11.5682 8.37595Z" fill="white"/>
</svg>
