<svg width="19" height="19" viewBox="0 0 19 19" fill="none" xmlns="http://www.w3.org/2000/svg">
<path d="M18.2594 3.96222C17.5736 3.14693 16.3073 2.81439 13.8891 2.81439H5.11074C2.63714 2.81439 1.34941 3.16842 0.66615 4.0364C0 4.88265 0 6.1296 0 7.85544V11.1448C0 14.4883 0.790392 16.1858 5.11074 16.1858H13.8891C15.9862 16.1858 17.1483 15.8924 17.9001 15.1729C18.6711 14.4351 19 13.2304 19 11.1448V7.85544C19 6.03541 18.9485 4.78111 18.2594 3.96222ZM12.1981 9.95424L8.21186 12.0376C8.12276 12.0841 8.02527 12.1072 7.92797 12.1072C7.81776 12.1072 7.7078 12.0776 7.61043 12.0186C7.42703 11.9075 7.31507 11.7087 7.31507 11.4943V7.34107C7.31507 7.12706 7.42674 6.92845 7.60976 6.81727C7.79282 6.70609 8.02052 6.69848 8.21045 6.79716L12.1967 8.86704C12.3995 8.97232 12.5268 9.18169 12.5271 9.41014C12.5274 9.63881 12.4006 9.84847 12.1981 9.95424Z" fill="white"/>
</svg>
