<svg width="441" height="10" viewBox="0 0 441 10" fill="none" xmlns="http://www.w3.org/2000/svg">
<path d="M7.05996 8.04108C7.25605 8.04108 7.25605 8.04108 7.05996 8.04108L7.84431 8.62897C7.45214 9.0209 7.05996 9.41283 6.66778 9.6088C6.07952 9.80476 5.49126 10.0007 4.903 10.0007C4.31473 10.0007 3.72647 9.80476 3.13821 9.6088C2.54994 9.41283 2.15777 9.0209 1.76559 8.62897C1.37342 8.23704 1.17733 7.84511 0.981244 7.25721C0.785156 6.66932 0.785156 6.08143 0.785156 5.49353C0.785156 4.90564 0.981244 4.31774 1.17733 3.72984C1.37342 3.14195 1.76559 2.75001 1.96168 2.35808C2.35386 1.96615 2.74603 1.77019 3.3343 1.37826C3.92256 0.986326 4.51082 0.986328 5.09908 0.986328C5.68735 0.986328 6.27561 0.986329 6.66778 1.18229C7.05996 1.37826 7.45214 1.57422 7.84431 1.96615L7.45214 2.75001C7.45214 2.75001 7.45214 2.75002 7.45214 2.94598C7.45214 2.94598 7.45214 2.94598 7.25605 2.94598H7.05996C7.05996 2.94598 6.86387 2.94598 6.86387 2.75001L6.66778 2.55405C6.4717 2.55405 6.4717 2.35808 6.27561 2.35808C6.07952 2.35808 5.88343 2.16212 5.68735 2.16212C5.49126 2.16212 5.29517 2.16212 5.09908 2.16212C4.70691 2.16212 4.31473 2.16212 3.92256 2.35808C3.53038 2.55405 3.13821 2.75002 2.94212 2.94598C2.74603 3.14195 2.54994 3.53388 2.35386 3.92581C2.15777 4.31774 2.15777 4.70967 2.15777 5.29756C2.15777 5.88546 2.15777 6.27739 2.35386 6.66932C2.54994 7.06125 2.74603 7.45318 2.94212 7.64915C3.13821 7.84511 3.53038 8.23704 3.92256 8.23704C4.31473 8.43301 4.70691 8.43301 5.09908 8.43301C5.29517 8.43301 5.49126 8.43301 5.68735 8.43301C5.88343 8.43301 6.07952 8.43301 6.27561 8.23704C6.4717 8.23704 6.66778 8.04108 6.66778 8.04108C6.86387 8.04108 7.05996 7.84511 7.05996 7.64915C7.05996 8.04108 7.05996 8.04108 7.05996 8.04108Z" fill="white"/>
<path d="M14.5105 8.82412H18.2362V9.80394H13.334V1.37744H14.5105V8.82412Z" fill="white"/>
<path d="M24.9059 9.80394H23.7285V1.37744H24.9059V9.80394Z" fill="white"/>
<path d="M31.964 1.3776L37.0623 8.04042C37.0623 7.84446 37.0623 7.84446 37.0623 7.64849V7.45253V1.3776H38.0428V9.80411H37.4545H37.2584C37.2584 9.80411 37.0623 9.80411 37.0623 9.60814L32.1601 3.14129C32.1601 3.33726 32.1601 3.33726 32.1601 3.33726V3.53322V9.60814H31.1797V1.18164H31.768C31.768 1.18164 31.964 1.18164 31.964 1.3776Z" fill="white"/>
<path d="M45.4938 9.80394H44.3164V1.37744H45.4938V9.80394Z" fill="white"/>
<path d="M57.8459 8.04108L58.4341 8.62897C58.042 9.0209 57.6498 9.41283 57.2576 9.6088C56.6694 9.80476 56.0811 10.0007 55.4928 10.0007C54.9046 10.0007 54.3163 9.80476 53.728 9.6088C53.1398 9.41283 52.7476 9.0209 52.3554 8.62897C51.9633 8.23704 51.7672 7.84511 51.5711 7.25721C51.375 6.66932 51.375 6.08143 51.375 5.49353C51.375 4.90564 51.5711 4.31774 51.7672 3.72984C51.9633 3.14195 52.3554 2.75001 52.5515 2.35808C52.9437 1.96615 53.3359 1.77019 53.9241 1.37826C54.5124 1.18229 55.1007 0.986328 55.6889 0.986328C56.2772 0.986328 56.8655 0.986329 57.2576 1.18229C57.6498 1.37826 58.042 1.57422 58.4341 1.96615L58.042 2.75001C58.042 2.75001 58.042 2.75002 58.042 2.94598C58.042 2.94598 58.042 2.94598 57.8459 2.94598H57.6498C57.6498 2.94598 57.4537 2.94598 57.4537 2.75001L57.2576 2.55405C57.0615 2.55405 57.0615 2.35808 56.8654 2.35808C56.6694 2.35808 56.4733 2.16212 56.2772 2.16212C56.0811 2.16212 55.885 2.16212 55.6889 2.16212C55.2967 2.16212 54.9046 2.16212 54.5124 2.35808C54.1202 2.55405 53.728 2.75002 53.532 2.94598C53.3359 3.14195 53.1398 3.53388 52.9437 3.92581C52.7476 4.31774 52.7476 4.70967 52.7476 5.29756C52.7476 5.88546 52.7476 6.27739 52.9437 6.66932C53.1398 7.06125 53.3359 7.45318 53.532 7.64915C53.728 7.84511 54.1202 8.23704 54.5124 8.23704C54.9046 8.43301 55.2967 8.43301 55.6889 8.43301C55.885 8.43301 56.0811 8.43301 56.2772 8.43301C56.4733 8.43301 56.6694 8.43301 56.8654 8.23704C57.0615 8.23704 57.2576 8.04108 57.2576 8.04108C57.4537 8.04108 57.6498 7.84511 57.6498 7.64915C57.6498 8.04108 57.8459 8.04108 57.8459 8.04108Z" fill="white"/>
<path d="M78.2392 5.49353C78.2392 6.08143 78.0431 6.66932 77.847 7.25721C77.6509 7.84511 77.4548 8.23704 77.0627 8.62897C76.6705 9.0209 76.2783 9.21687 75.69 9.6088C75.1018 9.80476 74.5135 10.0007 73.9253 10.0007C73.337 10.0007 72.7487 9.80476 72.1605 9.6088C71.5722 9.41283 71.18 9.0209 70.7879 8.62897C70.3957 8.23704 70.1996 7.84511 70.0035 7.25721C69.8074 6.66932 69.6113 6.08143 69.6113 5.49353C69.6113 4.90564 69.8074 4.31774 70.0035 3.72984C70.1996 3.14195 70.3957 2.75001 70.7879 2.35808C71.18 1.96615 71.5722 1.77019 72.1605 1.37826C72.7487 1.18229 73.337 0.986328 73.9253 0.986328C74.5135 0.986328 75.1018 1.18229 75.69 1.37826C76.2783 1.57422 76.6705 1.96615 77.0627 2.35808C77.4548 2.75001 77.6509 3.14195 77.847 3.72984C78.0431 4.31774 78.2392 4.90564 78.2392 5.49353ZM77.0627 5.49353C77.0627 4.90564 77.0627 4.5137 76.8666 4.12177C76.6705 3.72984 76.4744 3.33791 76.2783 3.14195C76.0822 2.94598 75.6901 2.55405 75.2979 2.55405C74.9057 2.55405 74.5135 2.35808 74.1213 2.35808C73.7292 2.35808 73.337 2.35808 72.9448 2.55405C72.5526 2.75001 72.1605 2.94598 71.9644 3.14195C71.7683 3.33791 71.5722 3.72984 71.3761 4.12177C71.18 4.5137 71.18 5.1016 71.18 5.49353C71.18 6.08143 71.18 6.47335 71.3761 6.86528C71.5722 7.25721 71.7683 7.64914 71.9644 7.84511C72.1605 8.04107 72.5526 8.43301 72.9448 8.43301C73.337 8.62898 73.7292 8.62897 74.1213 8.62897C74.5135 8.62897 74.9057 8.62898 75.2979 8.43301C75.6901 8.23705 76.0822 8.04107 76.2783 7.84511C76.4744 7.64914 76.6705 7.25721 76.8666 6.86528C76.8666 6.47335 77.0627 6.08143 77.0627 5.49353Z" fill="white"/>
<path d="M89.0229 1.18164V2.16147H84.905V5.10095H88.4346V6.08077H84.905V9.80411H83.7285V1.3776H89.0229V1.18164Z" fill="white"/>
<path d="M101.966 8.82412H105.691V9.80394H100.789V1.37744H101.966V8.82412Z" fill="white"/>
<path d="M118.045 9.80394H117.065C116.869 9.80394 116.869 9.80394 116.869 9.80394L116.673 9.60798L115.888 7.64833H112.163L111.378 9.60798C111.378 9.60798 111.378 9.80394 111.182 9.80394H110.986H110.006L113.339 1.37744H114.516L118.045 9.80394ZM112.555 6.6685H115.692L114.32 3.14113C114.32 2.94517 114.124 2.7492 114.124 2.35727C114.124 2.55323 114.124 2.7492 113.928 2.7492C113.928 2.94516 113.928 2.94517 113.732 3.14113L112.555 6.6685Z" fill="white"/>
<path d="M127.458 2.55339C127.458 2.55339 127.458 2.74936 127.458 2.55339C127.458 2.74936 127.262 2.74936 127.262 2.74936C127.262 2.74936 127.066 2.74936 127.066 2.55339C127.066 2.55339 126.87 2.35743 126.674 2.35743C126.478 2.35743 126.282 2.16147 126.085 2.16147C125.889 2.16147 125.693 1.9655 125.301 1.9655C125.105 1.9655 124.909 1.9655 124.713 2.16147C124.517 2.16147 124.321 2.35743 124.125 2.35743C123.928 2.55339 123.928 2.5534 123.732 2.74936C123.732 2.94533 123.536 3.14129 123.536 3.33725C123.536 3.53322 123.536 3.72919 123.732 3.92515C123.928 4.12112 123.928 4.12111 124.125 4.31708C124.321 4.51305 124.517 4.51305 124.713 4.51305C124.909 4.51305 125.301 4.70901 125.497 4.70901C125.693 4.70901 126.085 4.90498 126.282 5.10094C126.478 5.29691 126.674 5.29691 126.87 5.49288C127.066 5.68884 127.262 5.8848 127.262 6.08077C127.458 6.27673 127.458 6.66866 127.458 7.0606C127.458 7.45253 127.458 7.84446 127.262 8.04042C127.066 8.43235 126.87 8.62831 126.674 8.82428C126.478 9.02024 126.085 9.21621 125.693 9.41218C125.301 9.60814 124.909 9.60814 124.517 9.60814C123.928 9.60814 123.536 9.41217 122.948 9.21621C122.36 9.02024 122.164 8.82428 121.771 8.43235L122.164 7.84445C122.164 7.84445 122.164 7.84445 122.36 7.64849C122.36 7.64849 122.36 7.64849 122.556 7.64849C122.556 7.64849 122.752 7.64849 122.752 7.84445C122.752 8.04042 122.948 8.04042 123.144 8.23638C123.34 8.43235 123.536 8.43235 123.732 8.62831C123.928 8.62831 124.321 8.82428 124.517 8.82428C124.713 8.82428 125.105 8.82428 125.301 8.62831C125.497 8.62831 125.693 8.43235 125.889 8.23638C126.085 8.04042 126.085 7.84445 126.282 7.64849C126.282 7.45252 126.478 7.25656 126.478 7.0606C126.478 6.86463 126.478 6.66867 126.282 6.4727C126.085 6.27674 126.085 6.08077 125.889 6.08077C125.693 5.8848 125.497 5.8848 125.301 5.8848C125.105 5.8848 124.713 5.68884 124.517 5.68884C124.321 5.68884 123.928 5.49288 123.732 5.49288C123.536 5.29691 123.34 5.29691 123.144 5.10094C122.948 4.90498 122.752 4.70901 122.752 4.51305C122.556 4.31708 122.556 3.92515 122.556 3.53322C122.556 3.14129 122.556 2.94533 122.752 2.74936C122.948 2.5534 122.948 2.16147 123.34 1.9655C123.536 1.76954 123.928 1.57357 124.125 1.3776C124.517 1.18164 124.909 1.18164 125.301 1.18164C125.693 1.18164 126.281 1.18164 126.674 1.3776C127.066 1.57357 127.458 1.76954 127.654 1.9655L127.458 2.55339Z" fill="white"/>
<path d="M138.634 1.18164V2.16147H134.516V4.90498H137.85V5.8848H134.516V8.82428H138.634V9.80411H133.34V1.3776H138.634V1.18164Z" fill="white"/>
<path d="M145.694 6.27657V9.80395H144.518V1.37744H146.871C147.459 1.37744 147.851 1.37744 148.243 1.57341C148.635 1.76937 149.028 1.76937 149.224 1.96534C149.42 2.1613 149.616 2.35727 149.812 2.7492C150.008 2.94517 150.008 3.3371 150.008 3.72903C150.008 4.12096 150.008 4.31692 149.812 4.51289C149.812 4.70885 149.616 5.10078 149.42 5.29675C149.224 5.49271 149.028 5.68868 148.832 5.88464C148.635 6.08061 148.243 6.08061 148.047 6.27657C148.243 6.27657 148.243 6.47254 148.439 6.66851L150.988 9.99992H150.008C149.812 9.99992 149.616 9.99991 149.616 9.80395L147.067 6.47254L146.871 6.27657C146.871 6.27657 146.675 6.27657 146.478 6.27657H145.694ZM145.694 5.29675H146.871C147.263 5.29675 147.459 5.29675 147.851 5.10079C148.047 5.10079 148.243 4.90482 148.439 4.70885C148.635 4.51289 148.832 4.31692 148.832 4.12096C148.832 3.92499 149.028 3.72903 149.028 3.53306C149.028 2.94516 148.832 2.55323 148.439 2.35727C148.047 2.1613 147.655 1.96534 146.871 1.96534H145.694V5.29675Z" fill="white"/>
<path d="M169.42 9.80394H168.635C168.439 9.80394 168.439 9.80394 168.439 9.80394L168.243 9.60798L167.459 7.64833H163.733L162.949 9.60798C162.949 9.60798 162.949 9.80394 162.753 9.80394H162.557H161.576L164.91 1.37744H166.086L169.42 9.80394ZM163.929 6.6685H167.067L165.694 3.14113C165.694 2.94517 165.498 2.7492 165.498 2.35727C165.498 2.55323 165.498 2.7492 165.302 2.7492C165.302 2.94516 165.302 2.94517 165.106 3.14113L163.929 6.6685Z" fill="white"/>
<path d="M175.302 1.3776C175.498 1.3776 175.498 1.3776 175.302 1.3776L180.4 8.04042C180.4 7.84446 180.4 7.84445 180.4 7.64849V7.45253V1.3776H181.381V9.8041H180.792H180.596C180.596 9.8041 180.4 9.80411 180.4 9.60814L175.498 3.14129C175.498 3.33726 175.498 3.33725 175.498 3.33725V3.53322V9.60814H174.518V1.18164H175.106C175.302 1.18164 175.302 1.18164 175.302 1.3776Z" fill="white"/>
<path d="M194.91 5.49271C194.91 6.08061 194.714 6.6685 194.518 7.2564C194.322 7.84429 194.126 8.23622 193.734 8.62815C193.342 9.02008 192.949 9.21605 192.361 9.41202C191.773 9.60798 191.185 9.80394 190.596 9.80394H187.459V1.37744H190.596C191.185 1.37744 191.773 1.57341 192.361 1.76937C192.949 1.96534 193.342 2.35727 193.734 2.55323C194.126 2.94516 194.322 3.3371 194.518 3.92499C194.91 4.31692 194.91 4.90482 194.91 5.49271ZM193.734 5.49271C193.734 4.90482 193.734 4.51289 193.538 4.12096C193.342 3.72903 193.146 3.3371 192.949 3.14113C192.753 2.94517 192.361 2.55323 191.969 2.55323C191.577 2.35727 191.185 2.35727 190.792 2.35727H188.832V9.02009H190.792C191.185 9.02009 191.577 9.02008 191.969 8.82412C192.361 8.62815 192.753 8.43219 192.949 8.23622C193.146 8.04026 193.342 7.64833 193.538 7.2564C193.734 6.47254 193.734 6.08061 193.734 5.49271Z" fill="white"/>
<path d="M213.932 9.80394H212.952C212.756 9.80394 212.756 9.80394 212.756 9.80394L212.56 9.60798L211.775 7.64833H208.05L207.265 9.60798C207.265 9.60798 207.265 9.80394 207.069 9.80394H206.873H205.893L209.226 1.37744H210.403L213.932 9.80394ZM208.246 6.6685H211.383L210.01 3.14113C210.01 2.94517 209.814 2.7492 209.814 2.35727C209.814 2.55323 209.814 2.7492 209.618 2.7492C209.618 2.94516 209.618 2.94517 209.422 3.14113L208.246 6.6685Z" fill="white"/>
<path d="M224.128 1.18164V2.16147H220.011V4.90498H223.344V5.8848H220.011V8.82428H224.128V9.80411H218.834V1.3776H224.128V1.18164Z" fill="white"/>
<path d="M234.325 2.55339C234.325 2.55339 234.129 2.74936 234.325 2.55339C234.129 2.74936 234.129 2.74936 234.129 2.74936C234.129 2.74936 233.933 2.74936 233.933 2.55339C233.933 2.55339 233.737 2.35743 233.541 2.35743C233.345 2.35743 233.149 2.16147 232.953 2.16147C232.757 2.16147 232.56 1.9655 232.168 1.9655C231.972 1.9655 231.776 1.9655 231.58 2.16147C231.384 2.16147 231.188 2.35743 230.992 2.35743C230.796 2.55339 230.796 2.5534 230.6 2.74936C230.6 2.94533 230.403 3.14129 230.403 3.33725C230.403 3.53322 230.403 3.72919 230.6 3.92515C230.796 4.12112 230.796 4.12111 230.992 4.31708C231.188 4.51305 231.384 4.51305 231.58 4.51305C231.776 4.51305 232.168 4.70901 232.364 4.70901C232.56 4.70901 232.953 4.90498 233.149 5.10094C233.345 5.29691 233.541 5.29691 233.737 5.49288C233.933 5.68884 234.129 5.8848 234.129 6.08077C234.325 6.27673 234.325 6.66866 234.325 7.0606C234.325 7.45253 234.325 7.84446 234.129 8.04042C233.933 8.43235 233.737 8.62831 233.541 8.82428C233.345 9.02024 232.953 9.21621 232.56 9.41218C232.168 9.60814 231.776 9.60814 231.384 9.60814C230.796 9.60814 230.403 9.41217 229.815 9.21621C229.423 9.02024 229.031 8.82428 228.639 8.43235L229.031 7.84445C229.031 7.84445 229.031 7.84445 229.227 7.64849C229.227 7.64849 229.227 7.64849 229.423 7.64849C229.423 7.64849 229.619 7.64849 229.619 7.84445C229.619 8.04042 229.815 8.04042 230.011 8.23638C230.207 8.43235 230.403 8.43235 230.6 8.62831C230.796 8.62831 231.188 8.82428 231.384 8.82428C231.58 8.82428 231.972 8.82428 232.168 8.62831C232.364 8.62831 232.56 8.43235 232.756 8.23638C232.953 8.04042 232.953 7.84445 233.149 7.64849C233.149 7.45252 233.345 7.25656 233.345 7.0606C233.345 6.86463 233.345 6.66867 233.149 6.4727C232.953 6.27674 232.953 6.08077 232.756 6.08077C232.56 5.8848 232.364 5.8848 232.168 5.8848C231.972 5.8848 231.58 5.68884 231.384 5.68884C231.188 5.68884 230.796 5.49288 230.6 5.49288C230.403 5.49288 230.207 5.29691 230.011 5.10094C229.815 4.90498 229.619 4.70901 229.619 4.51305C229.423 4.31708 229.423 3.92515 229.423 3.53322C229.423 3.14129 229.423 2.94533 229.619 2.74936C229.815 2.5534 229.815 2.16147 230.207 1.9655C230.403 1.76954 230.796 1.57357 230.992 1.3776C231.384 1.18164 231.776 1.18164 232.168 1.18164C232.56 1.18164 233.149 1.18164 233.541 1.3776C233.933 1.57357 234.325 1.76954 234.521 1.9655L234.325 2.55339Z" fill="white"/>
<path d="M246.091 1.18164V2.16147H243.346V9.60814H242.169V2.16147H239.424V1.18164H246.091Z" fill="white"/>
<path d="M258.248 9.80394H257.071V5.88464H252.561V9.80394H251.385V1.37744H252.561V5.10078H257.071V1.37744H258.248V9.80394Z" fill="white"/>
<path d="M269.619 1.18164V2.16147H265.501V4.90498H268.834V5.8848H265.501V8.82428H269.619V9.80411H264.324V1.3776H269.619V1.18164Z" fill="white"/>
<path d="M280.991 1.18164V2.16147H278.246V9.60814H277.069V2.16147H274.324V1.18164H280.991Z" fill="white"/>
<path d="M287.662 9.80394H286.484V1.37744H287.662V9.80394Z" fill="white"/>
<path d="M300.016 8.04108L300.604 8.62897C300.212 9.0209 299.82 9.41283 299.428 9.6088C298.839 9.80476 298.251 10.0007 297.663 10.0007C297.075 10.0007 296.486 9.80476 295.898 9.6088C295.31 9.41283 294.918 9.0209 294.525 8.62897C294.133 8.23704 293.937 7.84511 293.741 7.25721C293.545 6.66932 293.545 6.08143 293.545 5.49353C293.545 4.90564 293.741 4.31774 293.937 3.72984C294.133 3.14195 294.525 2.75001 294.721 2.35808C295.114 1.96615 295.506 1.77019 296.094 1.37826C296.682 0.986326 297.271 0.986328 297.859 0.986328C298.447 0.986328 299.035 0.986329 299.428 1.18229C299.82 1.37826 300.212 1.57422 300.604 1.96615L300.212 2.55405C300.212 2.55405 300.212 2.55405 300.212 2.75001C300.212 2.75001 300.212 2.75001 300.016 2.75001H299.82C299.82 2.75001 299.624 2.75001 299.624 2.55405L299.428 2.35808C299.231 2.35808 299.231 2.16212 299.035 2.16212C298.839 2.16212 298.643 1.96615 298.447 1.96615C298.251 1.96615 298.055 1.96615 297.859 1.96615C297.467 1.96615 297.075 1.96616 296.682 2.16212C296.29 2.35809 295.898 2.55405 295.702 2.75001C295.506 2.94598 295.31 3.33791 295.114 3.72984C294.918 4.12177 294.918 4.5137 294.918 5.1016C294.918 5.6895 294.918 6.08143 295.114 6.47336C295.31 6.86529 295.506 7.25722 295.702 7.45318C295.898 7.64915 296.29 8.04108 296.682 8.04108C297.075 8.23704 297.467 8.23704 297.859 8.23704C298.055 8.23704 298.251 8.23704 298.447 8.23704C298.643 8.23704 298.839 8.23704 299.035 8.04108C299.231 8.04108 299.428 7.84511 299.428 7.84511C299.624 7.84511 299.82 7.64915 299.82 7.45318C299.82 8.04108 299.82 8.04108 300.016 8.04108Z" fill="white"/>
<path d="M318.447 8.04108C318.447 8.04108 318.644 8.04108 318.447 8.04108L319.036 8.62897C318.644 9.0209 318.251 9.41283 317.859 9.6088C317.271 9.80476 316.683 10.0007 316.094 10.0007C315.506 10.0007 314.918 9.80476 314.33 9.6088C313.741 9.41283 313.349 9.0209 312.957 8.62897C312.565 8.23704 312.369 7.84511 312.173 7.25721C311.977 6.66932 311.977 6.08143 311.977 5.49353C311.977 4.90564 312.173 4.31774 312.369 3.72984C312.565 3.14195 312.957 2.75001 313.153 2.35808C313.545 1.96615 313.937 1.77019 314.526 1.37826C315.114 1.18229 315.702 0.986328 316.29 0.986328C316.879 0.986328 317.467 0.986329 317.859 1.18229C318.251 1.37826 318.644 1.57422 319.036 1.96615L318.644 2.55405C318.644 2.55405 318.644 2.55405 318.644 2.75001C318.644 2.75001 318.644 2.75001 318.447 2.75001H318.251C318.251 2.75001 318.055 2.75001 318.055 2.55405L317.859 2.35808C317.663 2.35808 317.663 2.16212 317.467 2.16212C317.271 2.16212 317.075 1.96615 316.879 1.96615C316.683 1.96615 316.487 1.96615 316.29 1.96615C315.898 1.96615 315.506 1.96616 315.114 2.16212C314.722 2.35809 314.33 2.55405 314.134 2.75001C313.937 2.94598 313.741 3.33791 313.545 3.72984C313.349 4.12177 313.349 4.5137 313.349 5.1016C313.349 5.6895 313.349 6.08143 313.545 6.47336C313.741 6.86529 313.937 7.25722 314.134 7.45318C314.33 7.64915 314.722 8.04108 315.114 8.04108C315.506 8.23704 315.898 8.23704 316.29 8.23704C316.487 8.23704 316.683 8.23704 316.879 8.23704C317.075 8.23704 317.271 8.23704 317.467 8.04108C317.663 8.04108 317.859 7.84511 317.859 7.84511C318.055 7.84511 318.251 7.64915 318.251 7.45318C318.251 8.04108 318.447 8.04108 318.447 8.04108Z" fill="white"/>
<path d="M332.563 5.49353C332.563 6.08143 332.367 6.66932 332.171 7.25721C331.975 7.84511 331.779 8.23704 331.387 8.62897C330.995 9.0209 330.603 9.21687 330.014 9.6088C329.426 9.80476 328.838 10.0007 328.249 10.0007C327.661 10.0007 327.073 9.80476 326.485 9.6088C325.896 9.41283 325.504 9.0209 325.112 8.62897C324.72 8.23704 324.524 7.84511 324.328 7.25721C324.132 6.66932 323.936 6.08143 323.936 5.49353C323.936 4.90564 324.132 4.31774 324.328 3.72984C324.524 3.14195 324.72 2.75001 325.112 2.35808C325.504 1.96615 325.896 1.77019 326.485 1.37826C327.073 1.18229 327.661 0.986328 328.249 0.986328C328.838 0.986328 329.426 1.18229 330.014 1.37826C330.603 1.57422 330.995 1.96615 331.387 2.35808C331.779 2.75001 331.975 3.14195 332.171 3.72984C332.367 4.31774 332.563 4.90564 332.563 5.49353ZM331.387 5.49353C331.387 4.90564 331.387 4.5137 331.191 4.12177C330.995 3.72984 330.799 3.33791 330.603 3.14195C330.406 2.94598 330.014 2.55405 329.622 2.55405C329.23 2.55405 328.838 2.35808 328.446 2.35808C328.053 2.35808 327.661 2.35808 327.269 2.55405C326.877 2.75001 326.485 2.94598 326.289 3.14195C326.093 3.33791 325.896 3.72984 325.7 4.12177C325.504 4.5137 325.504 5.1016 325.504 5.49353C325.504 6.08143 325.504 6.47335 325.7 6.86528C325.896 7.25721 326.093 7.64914 326.289 7.84511C326.485 8.04107 326.877 8.43301 327.269 8.43301C327.661 8.62898 328.053 8.62897 328.446 8.62897C328.838 8.62897 329.23 8.62898 329.622 8.43301C330.014 8.23705 330.406 8.04107 330.603 7.84511C330.799 7.64914 330.995 7.25721 331.191 6.86528C331.191 6.47335 331.387 6.08143 331.387 5.49353Z" fill="white"/>
<path d="M342.563 2.55339C342.367 2.55339 342.367 2.74936 342.563 2.55339C342.367 2.74936 342.367 2.74936 342.367 2.74936C342.367 2.74936 342.171 2.74936 342.171 2.55339C342.171 2.55339 341.975 2.35743 341.779 2.35743C341.583 2.35743 341.387 2.16147 341.191 2.16147C340.995 2.16147 340.799 1.9655 340.407 1.9655C340.21 1.9655 340.014 1.9655 339.818 2.16147C339.622 2.16147 339.426 2.35743 339.23 2.35743C339.034 2.55339 339.034 2.5534 338.838 2.74936C338.838 2.94533 338.642 3.14129 338.642 3.33725C338.642 3.53322 338.642 3.72919 338.838 3.92515C339.034 4.12112 339.034 4.12111 339.23 4.31708C339.426 4.51305 339.622 4.51305 339.818 4.51305C340.014 4.51305 340.407 4.70901 340.603 4.70901C340.799 4.70901 341.191 4.90498 341.387 5.10094C341.583 5.29691 341.779 5.29691 341.975 5.49288C342.171 5.68884 342.367 5.8848 342.367 6.08077C342.564 6.27673 342.563 6.66866 342.563 7.0606C342.563 7.45253 342.564 7.84446 342.367 8.04042C342.171 8.43235 341.975 8.62831 341.779 8.82428C341.583 9.02024 341.191 9.21621 340.799 9.41218C340.407 9.60814 340.014 9.60814 339.622 9.60814C339.034 9.60814 338.642 9.41217 338.053 9.21621C337.661 9.02024 337.269 8.82428 336.877 8.43235L337.269 7.84445C337.269 7.84445 337.269 7.84445 337.465 7.64849C337.465 7.64849 337.465 7.64849 337.661 7.64849C337.661 7.64849 337.857 7.64849 337.857 7.84445C337.857 8.04042 338.053 8.04042 338.25 8.23638C338.446 8.43235 338.642 8.43235 338.838 8.62831C339.034 8.62831 339.426 8.82428 339.622 8.82428C339.818 8.82428 340.21 8.82428 340.407 8.62831C340.603 8.62831 340.799 8.43235 340.995 8.23638C341.191 8.04042 341.191 7.84445 341.387 7.64849C341.387 7.45252 341.583 7.25656 341.583 7.0606C341.583 6.86463 341.583 6.66867 341.387 6.4727C341.191 6.27674 341.191 6.08077 340.995 6.08077C340.799 5.8848 340.603 5.8848 340.407 5.8848C340.21 5.8848 339.818 5.68884 339.622 5.68884C339.426 5.68884 339.034 5.49288 338.838 5.49288C338.642 5.49288 338.446 5.29691 338.25 5.10094C338.053 4.90498 337.857 4.70901 337.857 4.51305C337.661 4.31708 337.661 3.92515 337.661 3.53322C337.661 3.14129 337.661 2.94533 337.857 2.74936C338.053 2.5534 338.053 2.16147 338.446 1.9655C338.642 1.76954 339.034 1.57357 339.23 1.3776C339.622 1.18164 340.014 1.18164 340.407 1.18164C340.799 1.18164 341.387 1.18164 341.779 1.3776C342.171 1.57357 342.563 1.76954 342.76 1.9655L342.563 2.55339Z" fill="white"/>
<path d="M352.762 7.0606C352.762 7.25656 352.762 7.25656 352.958 7.45253C352.958 7.25656 352.958 7.25656 353.155 7.0606C353.155 6.86463 353.155 6.86463 353.351 6.66867L356.292 1.3776L356.488 1.18164H356.684H357.469V9.60814H356.488V3.33726V3.14129V2.94533L353.547 8.23639C353.351 8.43235 353.351 8.43236 353.155 8.43236H352.958C352.762 8.43236 352.566 8.43235 352.566 8.23639L349.625 2.94533C349.625 3.14129 349.625 3.14129 349.625 3.33726C349.625 3.53322 349.625 3.53322 349.625 3.53322V9.80411H348.645V1.3776H349.429C349.625 1.3776 349.625 1.3776 349.625 1.3776C349.625 1.3776 349.821 1.3776 349.821 1.57357L352.762 6.86463C352.762 6.86463 352.762 6.86463 352.762 7.0606Z" fill="white"/>
<path d="M368.646 1.18164V2.16147H364.528V4.90498H367.862V5.8848H364.528V8.82428H368.646V9.80411H363.352V1.3776H368.646V1.18164Z" fill="white"/>
<path d="M380.216 1.18164V2.16147H377.471V9.60814H376.294V2.16147H373.549V1.18164H380.216Z" fill="white"/>
<path d="M392.765 5.49353C392.765 6.08143 392.569 6.66932 392.372 7.25721C392.176 7.84511 391.98 8.23704 391.588 8.62897C391.196 9.0209 390.804 9.21687 390.215 9.6088C389.627 9.80476 389.039 10.0007 388.451 10.0007C387.862 10.0007 387.274 9.80476 386.686 9.6088C386.098 9.41283 385.705 9.0209 385.313 8.62897C384.921 8.23704 384.725 7.84511 384.529 7.25721C384.333 6.66932 384.137 6.08143 384.137 5.49353C384.137 4.90564 384.333 4.31774 384.529 3.72984C384.725 3.14195 384.921 2.75001 385.313 2.35808C385.705 1.96615 386.098 1.77019 386.686 1.37826C387.274 1.18229 387.862 0.986328 388.451 0.986328C389.039 0.986328 389.627 1.18229 390.215 1.37826C390.804 1.57422 391.196 1.96615 391.588 2.35808C391.98 2.75001 392.176 3.14195 392.372 3.72984C392.569 4.31774 392.765 4.90564 392.765 5.49353ZM391.588 5.49353C391.588 4.90564 391.588 4.5137 391.392 4.12177C391.196 3.72984 391 3.33791 390.804 3.14195C390.608 2.94598 390.215 2.55405 389.823 2.55405C389.431 2.55405 389.039 2.35808 388.647 2.35808C388.255 2.35808 387.862 2.35808 387.47 2.55405C387.078 2.75001 386.686 2.94598 386.49 3.14195C386.294 3.33791 386.098 3.72984 385.902 4.12177C385.705 4.5137 385.705 5.1016 385.705 5.49353C385.705 6.08143 385.705 6.47335 385.902 6.86528C386.098 7.25721 386.294 7.64914 386.49 7.84511C386.686 8.04107 387.078 8.43301 387.47 8.43301C387.862 8.62898 388.255 8.62897 388.647 8.62897C389.039 8.62897 389.431 8.62898 389.823 8.43301C390.215 8.23705 390.608 8.04107 390.804 7.84511C391 7.64914 391.196 7.25721 391.392 6.86528C391.392 6.47335 391.588 6.08143 391.588 5.49353Z" fill="white"/>
<path d="M399.43 8.82412H403.156V9.80394H398.254V1.37744H399.43V8.82412Z" fill="white"/>
<path d="M415.903 5.49353C415.903 6.08143 415.707 6.66932 415.511 7.25721C415.315 7.84511 415.119 8.23704 414.727 8.62897C414.335 9.0209 413.942 9.21687 413.354 9.6088C412.766 9.80476 412.178 10.0007 411.589 10.0007C411.001 10.0007 410.413 9.80476 409.825 9.6088C409.236 9.41283 408.844 9.0209 408.452 8.62897C408.06 8.23704 407.864 7.84511 407.668 7.25721C407.471 6.66932 407.275 6.08143 407.275 5.49353C407.275 4.90564 407.471 4.31774 407.668 3.72984C407.864 3.14195 408.06 2.75001 408.452 2.35808C408.844 1.96615 409.236 1.77019 409.825 1.37826C410.413 1.18229 411.001 0.986328 411.589 0.986328C412.178 0.986328 412.766 1.18229 413.354 1.37826C413.942 1.57422 414.335 1.96615 414.727 2.35808C415.119 2.75001 415.315 3.14195 415.511 3.72984C415.903 4.31774 415.903 4.90564 415.903 5.49353ZM414.727 5.49353C414.727 4.90564 414.727 4.5137 414.531 4.12177C414.335 3.72984 414.138 3.33791 413.942 3.14195C413.746 2.94598 413.354 2.55405 412.962 2.55405C412.57 2.55405 412.178 2.35808 411.785 2.35808C411.393 2.35808 411.001 2.35808 410.609 2.55405C410.217 2.75001 409.825 2.94598 409.628 3.14195C409.432 3.33791 409.236 3.72984 409.04 4.12177C408.844 4.5137 408.844 5.1016 408.844 5.49353C408.844 6.08143 408.844 6.47335 409.04 6.86528C409.236 7.25721 409.432 7.64914 409.628 7.84511C409.825 8.04107 410.217 8.43301 410.609 8.43301C411.001 8.62898 411.393 8.62897 411.785 8.62897C412.178 8.62897 412.57 8.62898 412.962 8.43301C413.354 8.23705 413.746 8.04107 413.942 7.84511C414.138 7.64914 414.335 7.25721 414.531 6.86528C414.727 6.47335 414.727 6.08143 414.727 5.49353Z" fill="white"/>
<path d="M425.313 9.02009C425.509 9.02009 425.705 9.02009 425.901 9.02009C426.097 9.02009 426.293 9.02008 426.489 8.82412C426.685 8.82412 426.881 8.82412 426.881 8.62816C427.078 8.62816 427.274 8.43219 427.274 8.43219V6.47254H425.901H425.705C425.705 6.47254 425.705 6.47254 425.705 6.27657V5.68868H428.254V9.02009C428.058 9.21605 427.862 9.21605 427.666 9.41202C427.47 9.60799 427.274 9.60798 426.881 9.60798C426.685 9.60798 426.293 9.80394 426.097 9.80394C425.705 9.80394 425.509 9.80394 425.117 9.80394C424.528 9.80394 423.94 9.60799 423.352 9.41202C422.764 9.21605 422.371 8.82412 421.979 8.43219C421.587 8.04026 421.391 7.64833 421.195 7.06044C420.999 6.47254 420.803 5.88464 420.803 5.29675C420.803 4.70885 420.999 4.12096 421.195 3.53306C421.391 2.94517 421.783 2.55324 421.979 2.16131C422.371 1.76938 422.764 1.57341 423.352 1.18148C423.94 0.985517 424.528 0.789551 425.117 0.789551C425.509 0.789551 425.705 0.789551 426.097 0.789551C426.293 0.789551 426.685 0.985517 426.881 0.985517C427.078 0.985517 427.274 1.18148 427.47 1.37744C427.666 1.57341 427.862 1.57341 428.058 1.76938L427.666 2.35727C427.666 2.55324 427.47 2.55324 427.47 2.55324H427.274C427.078 2.55324 427.078 2.35727 426.881 2.35727C426.685 2.35727 426.685 2.16131 426.489 2.16131C426.293 2.16131 426.097 1.96534 425.901 1.96534C425.705 1.96534 425.313 1.96534 425.117 1.96534C424.724 1.96534 424.136 1.96534 423.744 2.16131C423.352 2.35727 422.96 2.55324 422.764 2.7492C422.568 2.94517 422.371 3.3371 422.175 3.72903C421.979 4.12096 421.979 4.51289 421.979 5.10079C421.979 5.68868 421.979 6.08061 422.175 6.47254C422.371 6.86447 422.568 7.2564 422.764 7.45237C422.96 7.64833 423.352 8.04026 423.744 8.04026C424.332 8.82412 424.921 9.02009 425.313 9.02009Z" fill="white"/>
<path d="M437.472 6.47254V9.80394H436.296V6.47254L433.158 1.37744H434.139C434.335 1.37744 434.335 1.37744 434.335 1.37744L434.531 1.57341L436.492 4.90481C436.492 5.10078 436.688 5.10078 436.688 5.29674C436.688 5.49271 436.884 5.49271 436.884 5.68868C436.884 5.49271 436.884 5.49271 437.08 5.29674C437.276 5.10078 437.276 5.10078 437.276 4.90481L439.237 1.57341C439.237 1.57341 439.237 1.37744 439.433 1.37744H439.629H440.61L437.472 6.47254Z" fill="white"/>
</svg>
