<svg width="441" height="45" viewBox="0 0 441 45" fill="none" xmlns="http://www.w3.org/2000/svg">
<path d="M39.4136 3.3314L24.511 43.8962H24.1188L6.47089 3.3314V40.3688C6.47089 42.7204 7.64742 42.7204 14.9027 43.1123V43.7002H0V43.1123C5.09828 42.7204 5.68654 42.7204 5.68654 40.3688V3.9193C5.68654 1.56772 5.09828 1.56772 0 1.17579V0.587891H12.9418L27.4523 33.3141L39.8058 0.587891H51.571V1.17579C47.061 1.56772 46.4728 1.56772 46.4728 3.9193V40.1729C46.4728 42.5244 47.061 42.5244 51.375 42.9164V43.5043H34.1192V42.9164C38.4332 42.5244 39.0214 42.5244 39.0214 40.1729L39.4136 3.3314Z" fill="white"/>
<path d="M97.849 10.7781H97.2607C95.8881 5.48702 93.339 1.17579 87.6524 1.17579H77.0637V21.3602H83.7307C87.6524 21.3602 90.0055 19.2046 90.5937 14.3055H91.182V29.1988H90.5937C90.0055 24.2997 87.6524 22.1441 83.7307 22.1441H77.0637V43.1123H87.2602C92.9468 43.1123 96.2803 39.585 97.849 33.5101H98.4372L97.849 43.7002H64.9062V43.1123C69.2202 42.7204 69.8084 42.7204 69.8084 40.3688V3.9193C69.8084 1.56772 69.2202 1.56772 64.9062 1.17579V0.587891H97.4568L97.849 10.7781Z" fill="white"/>
<path d="M111.963 43.5043V42.9164C116.277 42.5244 116.865 42.5244 116.865 40.1729V3.9193C116.865 1.56772 116.277 1.56772 111.963 1.17579V0.587891H132.16C144.317 0.587891 154.318 9.21036 154.318 21.9481C154.318 34.6858 144.317 43.3083 132.16 43.3083H111.963V43.5043ZM132.16 42.9164C140.788 42.9164 146.67 34.4899 146.67 22.1441C146.67 9.79826 140.788 1.37175 132.16 1.37175H124.316V43.1123H132.16V42.9164Z" fill="white"/>
<path d="M173.344 3.9193C173.344 1.56772 172.755 1.56772 168.441 1.17579V0.587891H185.697V1.17579C181.383 1.56772 180.795 1.56772 180.795 3.9193V40.1729C180.795 42.5244 181.383 42.5244 185.697 42.9164V43.5043H168.441V42.9164C172.755 42.5244 173.344 42.5244 173.344 40.1729V3.9193Z" fill="white"/>
<path d="M199.615 22.1441C199.615 9.21036 209.616 0 221.773 0C233.931 0 243.931 9.21036 243.931 22.1441C243.931 35.0778 233.931 44.2881 221.773 44.2881C209.616 44.2881 199.615 34.8818 199.615 22.1441ZM207.459 22.1441C207.459 34.4899 213.145 43.5043 221.969 43.5043C230.793 43.5043 236.48 34.4899 236.48 22.1441C236.48 9.79826 230.793 0.783861 221.969 0.783861C213.145 0.783861 207.459 9.60229 207.459 22.1441Z" fill="white"/>
<path d="M285.699 13.1297C283.934 6.07492 279.424 0.783861 273.542 0.783861C268.836 0.783861 265.502 3.13544 265.502 7.44668C265.502 19.0086 287.856 17.6369 287.856 31.7464C287.856 39.9769 281.385 44.2881 272.757 44.2881C268.247 44.2881 262.953 43.1123 259.619 41.1527L259.031 30.1786H259.619C261.384 39.389 267.071 43.5043 272.953 43.5043C278.052 43.5043 281.581 40.5648 281.581 34.8818C281.581 22.9279 259.227 24.6916 259.227 11.366C259.227 4.5072 264.914 0 273.738 0C277.66 0 282.17 0.979826 285.699 2.74351L286.287 13.1297H285.699Z" fill="white"/>
<path d="M301.386 0.587891H335.113L335.506 10.7781H334.917C333.545 5.09509 330.603 1.17579 325.701 1.17579H321.976V40.1729C321.976 42.5244 322.564 42.5244 326.878 42.9164V43.5043H309.622V42.9164C313.936 42.5244 314.524 42.5244 314.524 40.1729V1.17579H310.799C305.896 1.17579 302.759 4.89913 301.582 10.7781H300.994L301.386 0.587891Z" fill="white"/>
<path d="M383.548 39.7817C384.332 41.7414 384.92 42.5253 388.058 42.9172V43.5051H370.606V42.9172C375.116 42.3293 376.488 41.9374 375.312 39.1939L371.39 28.8077H354.919L351.389 39.3898C350.409 42.5253 351.978 42.3293 359.037 42.9172V43.5051H345.311V42.9172C348.84 42.3293 349.821 41.9374 350.605 39.3898L363.743 0.196777H368.057L383.548 39.7817ZM355.311 28.0238H371.39L362.958 5.48784H362.762L355.311 28.0238Z" fill="white"/>
<path d="M419.626 0.587891C429.234 0.587891 434.724 5.48702 434.724 12.1498C434.724 18.0288 430.214 23.7118 418.253 24.1037C426.097 25.6714 428.253 28.4149 429.822 30.7665L434.724 38.4092C436.881 41.5446 438.842 42.5244 440.999 42.9164V43.5043H430.018C428.646 41.7406 426.881 38.9971 425.704 37.0374L422.175 30.5706C420.606 28.023 418.841 25.2795 416.684 24.1037H412.566V40.1729C412.566 42.5244 413.155 42.5244 417.469 42.9164V43.5043H400.213V42.9164C404.527 42.5244 405.115 42.5244 405.115 40.1729V3.9193C405.115 1.56772 404.527 1.56772 400.213 1.17579V0.587891H419.626ZM412.566 1.17579V23.5158H416.488C424.724 23.5158 426.881 18.4207 426.881 12.5418C426.881 7.05474 424.92 1.17579 417.861 1.17579H412.566Z" fill="white"/>
</svg>
