<svg width="73" height="59" viewBox="0 0 73 59" fill="none" xmlns="http://www.w3.org/2000/svg">
<path d="M18.0981 31.0214C21.8767 31.4574 24.7107 33.0561 26.6 35.8174C28.4893 38.5787 29.434 41.6307 29.434 44.9733C29.434 48.4612 28.2713 51.5859 25.946 54.3472C23.766 57.1085 20.496 58.4891 16.1361 58.4891C14.3921 58.4891 12.5755 58.1985 10.6862 57.6171C8.79684 56.8905 7.05286 55.7278 5.45421 54.1292C3.85556 52.5305 2.54758 50.3505 1.53025 47.5892C0.512931 44.8279 0.00426997 41.34 0.00426997 37.1254C0.00426997 29.2774 2.25691 22.2289 6.7622 15.9796C11.2675 9.58499 17.0081 4.49838 23.984 0.719757L30.3059 9.43965C26.5273 11.4743 23.112 14.2356 20.0601 17.7236C17.1534 21.0662 15.1914 25.2808 14.1741 30.3674L18.0981 31.0214ZM60.6076 31.0214C64.3862 31.4574 67.2202 33.0561 69.1095 35.8174C70.9988 38.5787 71.9435 41.6307 71.9435 44.9733C71.9435 48.4612 70.7808 51.5859 68.4555 54.3472C66.2756 57.1085 63.0056 58.4891 58.6456 58.4891C56.9017 58.4891 55.085 58.1985 53.1957 57.6171C51.3064 56.8905 49.5624 55.7278 47.9638 54.1292C46.3651 52.5305 45.0571 50.3505 44.0398 47.5892C43.0225 44.8279 42.5138 41.34 42.5138 37.1254C42.5138 29.2774 44.7665 22.2289 49.2717 15.9796C53.777 9.58499 59.5176 4.49838 66.4936 0.719757L72.8155 9.43965C69.0369 11.4743 65.6216 14.2356 62.5696 17.7236C59.663 21.0662 57.701 25.2808 56.6837 30.3674L60.6076 31.0214Z" fill="#333333"/>
</svg>
