<svg width="72" height="57" viewBox="0 0 72 57" fill="none" xmlns="http://www.w3.org/2000/svg">
<path d="M17.8922 29.8981C21.6287 30.3283 24.4311 31.9057 26.2994 34.6302C28.1677 37.3547 29.1018 40.366 29.1018 43.6642C29.1018 47.1057 27.9521 50.1887 25.6527 52.9132C23.497 55.6377 20.2635 57 15.9521 57C14.2275 57 12.4311 56.7132 10.5629 56.1396C8.69461 55.4226 6.97005 54.2755 5.38922 52.6981C3.80838 51.1207 2.51496 48.9698 1.50898 46.2453C0.502989 43.5208 0 40.0792 0 35.9208C0 28.1774 2.22754 21.2226 6.68263 15.0566C11.1377 8.74716 16.8144 3.7283 23.7126 0L29.9641 8.60376C26.2275 10.6113 22.8503 13.3358 19.8323 16.7774C16.9581 20.0755 15.018 24.234 14.012 29.2528L17.8922 29.8981ZM59.9281 29.8981C63.6647 30.3283 66.4671 31.9057 68.3353 34.6302C70.2036 37.3547 71.1377 40.366 71.1377 43.6642C71.1377 47.1057 69.988 50.1887 67.6886 52.9132C65.5329 55.6377 62.2994 57 57.988 57C56.2635 57 54.4671 56.7132 52.5988 56.1396C50.7305 55.4226 49.006 54.2755 47.4251 52.6981C45.8443 51.1207 44.5509 48.9698 43.5449 46.2453C42.5389 43.5208 42.0359 40.0792 42.0359 35.9208C42.0359 28.1774 44.2635 21.2226 48.7186 15.0566C53.1736 8.74716 58.8503 3.7283 65.7485 0L72 8.60376C68.2635 10.6113 64.8862 13.3358 61.8683 16.7774C58.994 20.0755 57.0539 24.234 56.0479 29.2528L59.9281 29.8981Z" fill="#2F4E74"/>
</svg>
