<svg width="24" height="24" viewBox="0 0 24 24" fill="none" xmlns="http://www.w3.org/2000/svg">
<path d="M6.00156 7.60005H9.60156C9.82276 7.60005 10.0016 7.42125 10.0016 7.20005C10.0016 6.97885 9.82276 6.80005 9.60156 6.80005H6.00156C5.78036 6.80005 5.60156 6.97885 5.60156 7.20005C5.60156 7.42125 5.78036 7.60005 6.00156 7.60005Z" fill="#333333"/>
<path d="M6.00156 10.4001H8.00156C8.22276 10.4001 8.40156 10.2213 8.40156 10.0001C8.40156 9.7789 8.22276 9.6001 8.00156 9.6001H6.00156C5.78036 9.6001 5.60156 9.7789 5.60156 10.0001C5.60156 10.2213 5.78036 10.4001 6.00156 10.4001Z" fill="#333333"/>
<path d="M11.2008 10.4001H14.0008C14.222 10.4001 14.4008 10.2213 14.4008 10.0001C14.4008 9.7789 14.222 9.6001 14.0008 9.6001H11.2008C10.9796 9.6001 10.8008 9.7789 10.8008 10.0001C10.8008 10.2213 10.9796 10.4001 11.2008 10.4001Z" fill="#333333"/>
<path d="M9.88517 10.284C9.95717 10.208 10.0012 10.104 10.0012 9.99998C10.0012 9.89558 9.95717 9.79158 9.88517 9.71598C9.73317 9.56798 9.46917 9.56798 9.31717 9.71598C9.24477 9.79158 9.20117 9.89558 9.20117 9.99998C9.20117 10.104 9.24477 10.208 9.31717 10.284C9.39277 10.3596 9.49277 10.4 9.60117 10.4C9.70517 10.4 9.80917 10.356 9.88517 10.284Z" fill="#333333"/>
<path d="M15.6012 10.4C15.7092 10.4 15.8092 10.356 15.8852 10.284C15.9572 10.208 16.0012 10.104 16.0012 9.99998C16.0012 9.89558 15.9572 9.79158 15.8852 9.71598C15.7332 9.56798 15.4692 9.56798 15.3172 9.71598C15.2448 9.79158 15.2012 9.89558 15.2012 9.99998C15.2012 10.104 15.2448 10.208 15.3172 10.284C15.3928 10.3596 15.4928 10.4 15.6012 10.4Z" fill="#333333"/>
<path d="M7.20117 12.7999C7.20117 13.0211 7.37997 13.1999 7.60117 13.1999H10.4012C10.6224 13.1999 10.8012 13.0211 10.8012 12.7999C10.8012 12.5787 10.6224 12.3999 10.4012 12.3999H7.60117C7.37997 12.3999 7.20117 12.5787 7.20117 12.7999Z" fill="#333333"/>
<path d="M6.28556 13.084C6.36116 13.008 6.40156 12.904 6.40156 12.8C6.40156 12.6956 6.36116 12.5916 6.28556 12.516C6.13356 12.368 5.86956 12.368 5.71756 12.516C5.64156 12.5916 5.60156 12.6916 5.60156 12.8C5.60156 12.904 5.64516 13.008 5.71756 13.084C5.79316 13.156 5.89756 13.2 6.00156 13.2C6.10556 13.2 6.20956 13.156 6.28556 13.084Z" fill="#333333"/>
<path d="M8.21047 14.8548C7.33447 15.3108 7.03967 16.1832 6.93207 17.0876C6.76647 16.9488 6.60087 16.8104 6.43567 16.6716C6.04367 16.3432 5.47487 16.906 5.87007 17.2376C6.24407 17.5508 6.61847 17.8644 6.99247 18.178C7.25567 18.3984 7.66287 18.2592 7.67527 17.8952C7.70447 17.0288 7.74527 15.9984 8.61447 15.546C9.07127 15.3076 8.66727 14.6168 8.21047 14.8548Z" fill="#333333"/>
<path d="M10.871 16.4498C10.317 16.5782 9.68661 17.283 9.29661 16.4922C9.06901 16.0306 8.37861 16.4354 8.60581 16.8958C8.81301 17.3154 9.20581 17.6094 9.67341 17.6686C9.91101 17.6986 10.1258 17.665 10.3486 17.5782C10.5122 17.5146 11.1234 17.055 11.2554 17.2914C11.5066 17.741 12.1978 17.3382 11.9462 16.8878C11.7314 16.503 11.2966 16.351 10.871 16.4498Z" fill="#333333"/>
<path d="M22.0068 0H20.3952C19.8756 0 19.4368 0.3356 19.2732 0.8H15.2008H12.8008V0.4C12.8008 0.1788 12.622 0 12.4008 0H8.80078C8.57958 0 8.40078 0.1788 8.40078 0.4V0.8H6.00078H0.800781V24H20.4008V22.2064L20.8008 22.9064V23.6C20.8008 23.8212 20.9796 24 21.2008 24C21.422 24 21.6008 23.8212 21.6008 23.6V22.9064L23.2008 20.1064V5.2V2.8V1.194C23.2008 0.5356 22.6652 0 22.0068 0ZM20.0008 3.6H22.4008V4.4H20.0008V3.6ZM12.0008 0.8V1.2V2H9.20078V1.2V0.8H12.0008ZM8.40078 1.6V2.4V2.8H8.80078H12.4008H12.8008V2.4V1.6H14.8008V2.8V3.2H6.40078V2.8V1.6H8.40078ZM6.00078 4H15.2008H15.6008V3.6H17.6008V21.2H3.60078V3.6H5.60078V4H6.00078ZM19.6008 23.2H1.60078V1.6H5.60078V2.8H2.80078V22H18.4008V2.8H15.6008V1.6H19.2008V2.8V5.2V20.1064L19.6008 20.8064V23.2ZM20.29 20.4H22.1116L21.2008 21.9936L20.4008 20.5936L20.29 20.4ZM22.4008 19.6H20.0008V5.2H22.4008V19.6ZM20.0008 2.8V1.194C20.0008 0.9768 20.1776 0.8 20.3948 0.8H22.0064C22.224 0.8 22.4008 0.9768 22.4008 1.194V2.8H20.0008Z" fill="#333333"/>
</svg>
