<svg viewBox="0 0 372 342" fill="none" xmlns="http://www.w3.org/2000/svg">
<rect width="6" height="60" fill="white"/>
<rect y="6" width="6" height="60" transform="rotate(-90 0 6)" fill="white"/>
<rect y="342" width="6" height="60" transform="rotate(-90 0 342)" fill="white"/>
<rect x="6" y="342" width="6" height="60" transform="rotate(180 6 342)" fill="white"/>
<rect x="372" width="6" height="60" transform="rotate(90 372 0)" fill="white"/>
<rect x="366" width="6" height="60" fill="white"/>
<rect x="372" y="342" width="6" height="60" transform="rotate(-180 372 342)" fill="white"/>
<rect x="372" y="336" width="6" height="60" transform="rotate(90 372 336)" fill="white"/>
<path d="M182.566 182.365C186.152 182.365 189.431 181.047 191.963 178.88L201.726 188.643C201.948 188.863 202.236 188.974 202.525 188.974C202.814 188.974 203.102 188.863 203.321 188.643C203.543 188.422 203.653 188.134 203.653 187.845C203.653 187.556 203.543 187.268 203.321 187.048L193.558 177.284C195.726 174.753 197.044 171.473 197.044 167.887C197.044 159.902 190.549 153.407 182.566 153.407C174.582 153.407 168.086 159.902 168.086 167.887C168.085 175.87 174.581 182.365 182.566 182.365ZM182.566 155.663C189.304 155.663 194.788 161.146 194.788 167.886C194.788 174.625 189.304 180.109 182.566 180.109C175.825 180.109 170.342 174.626 170.342 167.886C170.342 161.146 175.825 155.663 182.566 155.663Z" fill="white"/>
<path d="M178.208 169.015H181.044V171.851C181.044 172.473 181.549 172.978 182.172 172.978C182.796 172.978 183.301 172.474 183.301 171.851V169.015H186.137C186.761 169.015 187.265 168.51 187.265 167.887C187.265 167.263 186.761 166.758 186.137 166.758H183.301V163.922C183.301 163.299 182.797 162.794 182.172 162.794C181.55 162.794 181.044 163.298 181.044 163.922V166.758H178.208C177.586 166.758 177.08 167.263 177.08 167.887C177.08 168.51 177.586 169.015 178.208 169.015Z" fill="white"/>
</svg>
