<svg width="16" height="16" viewBox="0 0 16 16" fill="none" xmlns="http://www.w3.org/2000/svg">
<path d="M15.09 2.62506C14.8641 2.39887 14.596 2.28575 14.2865 2.28575H13.1438V1.42858C13.1438 1.0358 13.0038 0.699467 12.7241 0.419705C12.4442 0.139944 12.108 0 11.7151 0H11.1438C10.7509 0 10.4146 0.139944 10.1348 0.419737C9.85496 0.699467 9.71508 1.03583 9.71508 1.42861V2.28579H6.28669V1.42861C6.28669 1.03583 6.14675 0.699499 5.86696 0.419737C5.58723 0.139944 5.25092 0 4.85799 0H4.28661C3.89377 0 3.55743 0.139944 3.27764 0.419737C2.99791 0.699467 2.85793 1.03583 2.85793 1.42861V2.28579H1.71518C1.40558 2.28579 1.13776 2.3989 0.911571 2.62509C0.685378 2.85125 0.572266 3.11919 0.572266 3.42869V14.8572C0.572266 15.1665 0.685378 15.4344 0.911571 15.6607C1.13773 15.8869 1.40555 16 1.71518 16H14.2863C14.5958 16 14.8639 15.8869 15.0898 15.6607C15.3161 15.4345 15.4292 15.1665 15.4292 14.8572V3.42866C15.4292 3.11907 15.3161 2.85125 15.09 2.62506ZM10.8581 1.42871C10.8581 1.3453 10.8846 1.27679 10.9381 1.22334C10.9917 1.16983 11.0601 1.14303 11.1436 1.14303H11.7149C11.7984 1.14303 11.8667 1.16974 11.9203 1.22334C11.9739 1.27688 12.0006 1.3454 12.0006 1.42871V4.00004C12.0006 4.08341 11.9739 4.1518 11.9203 4.2054C11.8666 4.25885 11.7984 4.28571 11.7149 4.28571H11.1436C11.0601 4.28571 10.9917 4.25897 10.9381 4.2054C10.8846 4.15177 10.8581 4.08341 10.8581 4.00004V1.42871ZM4.00094 1.42871C4.00094 1.3453 4.02767 1.27679 4.08124 1.22334C4.13484 1.16983 4.20324 1.14303 4.28661 1.14303H4.85799C4.94139 1.14303 5.00991 1.16974 5.06335 1.22334C5.11686 1.27688 5.14372 1.3454 5.14372 1.42871V4.00004C5.14372 4.08341 5.11698 4.1519 5.06335 4.2054C5.00978 4.25885 4.94139 4.28571 4.85799 4.28571H4.28661C4.20324 4.28571 4.13475 4.25897 4.08124 4.2054C4.0278 4.15177 4.00094 4.08341 4.00094 4.00004V1.42871ZM14.2863 14.8571H1.71518V5.71432H14.2863V14.8571Z" fill="#2F4E74"/>
</svg>
