<svg width="92" height="92" viewBox="0 0 92 92" fill="none" xmlns="http://www.w3.org/2000/svg">
<circle cx="45.5" cy="35.5" r="14.5" fill="#234076"/>
<path d="M45.9994 0C27.3892 0 12.25 15.1392 12.25 33.7494C12.25 40.5551 15.2069 49.347 21.2919 60.6267C26.2856 69.8824 32.4763 79.095 36.9991 85.8234C37.4952 86.5623 37.9751 87.2758 38.4317 87.959C40.1267 90.4901 42.9561 92 45.9994 92C49.0428 92 51.8722 90.4901 53.5654 87.959C62.7169 74.2974 79.7489 48.8671 79.7489 33.7494C79.7489 15.1392 64.6079 0 45.9994 0ZM52.8195 35.815H48.6958V40.3826C48.6958 41.8728 47.4878 43.079 45.9994 43.079C44.5093 43.079 43.3031 41.8728 43.3031 40.3826V35.815H38.9979C37.5096 35.815 36.3015 34.6069 36.3015 33.1186C36.3015 31.6302 37.5096 30.4222 38.9979 30.4222H43.3031V26.6581C43.3031 25.1679 44.5093 23.9617 45.9994 23.9617C47.4878 23.9617 48.6958 25.1679 48.6958 26.6581V30.4222H52.8195C54.3096 30.4222 55.5159 31.6302 55.5159 33.1186C55.5159 34.6069 54.3096 35.815 52.8195 35.815Z" fill="#EBEBFF"/>
<path d="M79.7494 33.7494C79.7494 48.8671 62.7174 74.2974 53.5659 87.959C51.8727 90.4901 49.0434 92 46 92V43.079C47.4884 43.079 48.6964 41.8728 48.6964 40.3826V35.815H52.82C54.3102 35.815 55.5164 34.6069 55.5164 33.1186C55.5164 31.6302 54.3102 30.4222 52.82 30.4222H48.6964V26.6581C48.6964 25.1679 47.4884 23.9617 46 23.9617V0C64.6084 0 79.7494 15.1392 79.7494 33.7494Z" fill="#BAD2FA"/>
<path d="M46.0004 10.4602C33.4066 10.4602 23.1621 20.7063 23.1621 33.2985C23.1621 45.8922 33.4065 56.1368 46.0004 56.1368C58.5924 56.1368 68.8387 45.8924 68.8387 33.2985C68.8387 20.7063 58.5924 10.4602 46.0004 10.4602ZM52.8204 35.815H48.6968V40.3827C48.6968 41.8728 47.4887 43.0791 46.0004 43.0791C44.5102 43.0791 43.304 41.8728 43.304 40.3827V35.815H38.9989C37.5105 35.815 36.3025 34.607 36.3025 33.1186C36.3025 31.6303 37.5105 30.4222 38.9989 30.4222H43.304V26.6581C43.304 25.168 44.5102 23.9617 46.0004 23.9617C47.4887 23.9617 48.6968 25.168 48.6968 26.6581V30.4222H52.8204C54.3106 30.4222 55.5168 31.6303 55.5168 33.1186C55.5168 34.607 54.3106 35.815 52.8204 35.815Z" fill="#234076"/>
<path d="M68.8383 33.2983C68.8383 45.8921 58.5921 56.1366 46 56.1366V43.0791C47.4884 43.0791 48.6964 41.8728 48.6964 40.3827V35.815H52.82C54.3102 35.815 55.5164 34.607 55.5164 33.1186C55.5164 31.6303 54.3102 30.4222 52.82 30.4222H48.6964V26.6581C48.6964 25.168 47.4884 23.9617 46 23.9617V10.4602C58.592 10.4602 68.8383 20.7063 68.8383 33.2983Z" fill="#234076"/>
</svg>
