<svg width="25" height="36" viewBox="0 0 25 36" fill="none" xmlns="http://www.w3.org/2000/svg">
<path d="M12.998 0C19.615 0 24.998 5.38082 24.998 11.9942V24.0065C24.998 30.6197 19.615 36 12.998 36C6.38109 36 0.998047 30.6199 0.998047 24.0065V11.9942C0.998047 5.38082 6.38126 0 12.998 0ZM2.33136 24.0065C2.33136 29.8847 7.11644 34.6667 12.998 34.6667C18.8797 34.6667 23.6647 29.8847 23.6647 24.0065V11.9942C23.6647 6.116 18.8797 1.33331 12.998 1.33331C7.11644 1.33331 2.33136 6.11583 2.33136 11.9942V24.0065Z" fill="white"/>
<path d="M12.9973 4C13.3655 4 13.6641 4.29821 13.6641 4.66674V10.7039C13.6641 11.0724 13.3655 11.3706 12.9973 11.3706C12.6291 11.3706 12.3306 11.0724 12.3306 10.7039V4.66674C12.3307 4.29821 12.6291 4 12.9973 4Z" fill="white"/>
</svg>
