<svg width="24" height="24" viewBox="0 0 24 24" fill="none" xmlns="http://www.w3.org/2000/svg">
<path d="M12 9.5999C13.9884 9.5999 15.6 11.2122 15.6 13.1999C15.6 15.1883 13.9884 16.7999 12 16.7999C10.0121 16.7999 8.4 15.1883 8.4 13.1999C8.4 11.2122 10.0121 9.5999 12 9.5999ZM2.4 5.9999H5.28C5.676 5.9999 6.10272 5.6927 6.22776 5.31686L6.97224 3.0827C7.09776 2.7071 7.524 2.3999 7.92 2.3999H16.08C16.476 2.3999 16.9027 2.7071 17.0278 3.08294L17.7722 5.3171C17.8978 5.6927 18.324 5.9999 18.72 5.9999H21.6C22.92 5.9999 24 7.0799 24 8.3999V19.1999C24 20.5199 22.92 21.5999 21.6 21.5999H2.4C1.08 21.5999 0 20.5199 0 19.1999V8.3999C0 7.0799 1.08 5.9999 2.4 5.9999ZM12 19.1999C15.3137 19.1999 18 16.5136 18 13.1999C18 9.88646 15.3137 7.1999 12 7.1999C8.6868 7.1999 6 9.88646 6 13.1999C6 16.5136 8.6868 19.1999 12 19.1999ZM3.24 10.0782C3.70368 10.0782 4.08 9.70238 4.08 9.23822C4.08 8.77454 3.70368 8.39822 3.24 8.39822C2.77584 8.39822 2.4 8.77454 2.4 9.23822C2.4 9.70238 2.77608 10.0782 3.24 10.0782Z" fill="white"/>
</svg>
